ISO-10303-21;
HEADER;
/* Generated by software containing ST-Developer
 * from STEP Tools, Inc. (www.steptools.com) 
 */

FILE_DESCRIPTION(
/* description */ (''),
/* implementation_level */ '2;1');

FILE_NAME(
/* name */ 'HW_2 Assembly.step',
/* time_stamp */ '2026-09-02T15:26:22-04:00',
/* author */ (''),
/* organization */ (''),
/* preprocessor_version */ 'ST-DEVELOPER v20.1',
/* originating_system */ 'Autodesk Translation Framework v15.8.0.0',
/* authorisation */ '');

FILE_SCHEMA (('AUTOMOTIVE_DESIGN { 1 0 10303 214 3 1 1 }'));
ENDSEC;

DATA;
#10=MECHANICAL_DESIGN_GEOMETRIC_PRESENTATION_REPRESENTATION('',(#35,#36),
#594);
#11=ITEM_DEFINED_TRANSFORMATION($,$,#387,#393);
#12=ITEM_DEFINED_TRANSFORMATION($,$,#364,#394);
#13=ITEM_DEFINED_TRANSFORMATION($,$,#387,#395);
#14=ITEM_DEFINED_TRANSFORMATION($,$,#387,#396);
#15=ITEM_DEFINED_TRANSFORMATION($,$,#387,#397);
#16=(
REPRESENTATION_RELATIONSHIP($,$,#612,#610)
REPRESENTATION_RELATIONSHIP_WITH_TRANSFORMATION(#11)
SHAPE_REPRESENTATION_RELATIONSHIP()
);
#17=(
REPRESENTATION_RELATIONSHIP($,$,#611,#610)
REPRESENTATION_RELATIONSHIP_WITH_TRANSFORMATION(#12)
SHAPE_REPRESENTATION_RELATIONSHIP()
);
#18=(
REPRESENTATION_RELATIONSHIP($,$,#612,#610)
REPRESENTATION_RELATIONSHIP_WITH_TRANSFORMATION(#13)
SHAPE_REPRESENTATION_RELATIONSHIP()
);
#19=(
REPRESENTATION_RELATIONSHIP($,$,#612,#610)
REPRESENTATION_RELATIONSHIP_WITH_TRANSFORMATION(#14)
SHAPE_REPRESENTATION_RELATIONSHIP()
);
#20=(
REPRESENTATION_RELATIONSHIP($,$,#612,#610)
REPRESENTATION_RELATIONSHIP_WITH_TRANSFORMATION(#15)
SHAPE_REPRESENTATION_RELATIONSHIP()
);
#21=CONTEXT_DEPENDENT_SHAPE_REPRESENTATION(#16,#605);
#22=CONTEXT_DEPENDENT_SHAPE_REPRESENTATION(#17,#606);
#23=CONTEXT_DEPENDENT_SHAPE_REPRESENTATION(#18,#607);
#24=CONTEXT_DEPENDENT_SHAPE_REPRESENTATION(#19,#608);
#25=CONTEXT_DEPENDENT_SHAPE_REPRESENTATION(#20,#609);
#26=NEXT_ASSEMBLY_USAGE_OCCURRENCE('pi v1:1','pi v1:1','pi v1:1',#614,#616,
'pi v1:1');
#27=NEXT_ASSEMBLY_USAGE_OCCURRENCE('HW2 v8:1','HW2 v8:1','HW2 v8:1',#614,
#615,'HW2 v8:1');
#28=NEXT_ASSEMBLY_USAGE_OCCURRENCE('pi v1:2','pi v1:2','pi v1:2',#614,#616,
'pi v1:2');
#29=NEXT_ASSEMBLY_USAGE_OCCURRENCE('pi v1:3','pi v1:3','pi v1:3',#614,#616,
'pi v1:3');
#30=NEXT_ASSEMBLY_USAGE_OCCURRENCE('pi v1:4','pi v1:4','pi v1:4',#614,#616,
'pi v1:4');
#31=SHAPE_REPRESENTATION_RELATIONSHIP('SRR','None',#611,#33);
#32=SHAPE_REPRESENTATION_RELATIONSHIP('SRR','None',#612,#34);
#33=ADVANCED_BREP_SHAPE_REPRESENTATION('',(#37),#592);
#34=ADVANCED_BREP_SHAPE_REPRESENTATION('',(#38),#593);
#35=STYLED_ITEM('',(#630),#37);
#36=STYLED_ITEM('',(#631),#38);
#37=MANIFOLD_SOLID_BREP('Body8',#338);
#38=MANIFOLD_SOLID_BREP('Body1',#339);
#39=FACE_BOUND('',#91,.T.);
#40=FACE_BOUND('',#92,.T.);
#41=FACE_BOUND('',#93,.T.);
#42=FACE_BOUND('',#94,.T.);
#43=FACE_BOUND('',#95,.T.);
#44=FACE_BOUND('',#97,.T.);
#45=FACE_BOUND('',#98,.T.);
#46=FACE_BOUND('',#99,.T.);
#47=FACE_BOUND('',#100,.T.);
#48=FACE_BOUND('',#101,.T.);
#49=PLANE('',#377);
#50=PLANE('',#378);
#51=PLANE('',#379);
#52=PLANE('',#380);
#53=PLANE('',#381);
#54=PLANE('',#382);
#55=PLANE('',#383);
#56=PLANE('',#384);
#57=PLANE('',#385);
#58=PLANE('',#386);
#59=PLANE('',#391);
#60=PLANE('',#392);
#61=FACE_OUTER_BOUND('',#78,.T.);
#62=FACE_OUTER_BOUND('',#79,.T.);
#63=FACE_OUTER_BOUND('',#80,.T.);
#64=FACE_OUTER_BOUND('',#81,.T.);
#65=FACE_OUTER_BOUND('',#82,.T.);
#66=FACE_OUTER_BOUND('',#83,.T.);
#67=FACE_OUTER_BOUND('',#84,.T.);
#68=FACE_OUTER_BOUND('',#85,.T.);
#69=FACE_OUTER_BOUND('',#86,.T.);
#70=FACE_OUTER_BOUND('',#87,.T.);
#71=FACE_OUTER_BOUND('',#88,.T.);
#72=FACE_OUTER_BOUND('',#89,.T.);
#73=FACE_OUTER_BOUND('',#90,.T.);
#74=FACE_OUTER_BOUND('',#96,.T.);
#75=FACE_OUTER_BOUND('',#102,.T.);
#76=FACE_OUTER_BOUND('',#103,.T.);
#77=FACE_OUTER_BOUND('',#104,.T.);
#78=EDGE_LOOP('',(#238,#239,#240,#241));
#79=EDGE_LOOP('',(#242,#243,#244,#245));
#80=EDGE_LOOP('',(#246,#247,#248,#249));
#81=EDGE_LOOP('',(#250,#251,#252,#253));
#82=EDGE_LOOP('',(#254,#255,#256,#257));
#83=EDGE_LOOP('',(#258,#259,#260,#261));
#84=EDGE_LOOP('',(#262,#263,#264,#265));
#85=EDGE_LOOP('',(#266,#267,#268,#269));
#86=EDGE_LOOP('',(#270,#271,#272,#273));
#87=EDGE_LOOP('',(#274,#275,#276,#277));
#88=EDGE_LOOP('',(#278,#279,#280,#281));
#89=EDGE_LOOP('',(#282,#283,#284,#285));
#90=EDGE_LOOP('',(#286,#287,#288,#289));
#91=EDGE_LOOP('',(#290,#291,#292,#293));
#92=EDGE_LOOP('',(#294));
#93=EDGE_LOOP('',(#295));
#94=EDGE_LOOP('',(#296));
#95=EDGE_LOOP('',(#297));
#96=EDGE_LOOP('',(#298,#299,#300,#301));
#97=EDGE_LOOP('',(#302,#303,#304,#305));
#98=EDGE_LOOP('',(#306));
#99=EDGE_LOOP('',(#307));
#100=EDGE_LOOP('',(#308));
#101=EDGE_LOOP('',(#309));
#102=EDGE_LOOP('',(#310,#311,#312,#313));
#103=EDGE_LOOP('',(#314));
#104=EDGE_LOOP('',(#315));
#105=LINE('',#503,#134);
#106=LINE('',#509,#135);
#107=LINE('',#515,#136);
#108=LINE('',#521,#137);
#109=LINE('',#526,#138);
#110=LINE('',#528,#139);
#111=LINE('',#530,#140);
#112=LINE('',#531,#141);
#113=LINE('',#534,#142);
#114=LINE('',#536,#143);
#115=LINE('',#537,#144);
#116=LINE('',#540,#145);
#117=LINE('',#542,#146);
#118=LINE('',#543,#147);
#119=LINE('',#545,#148);
#120=LINE('',#546,#149);
#121=LINE('',#550,#150);
#122=LINE('',#552,#151);
#123=LINE('',#554,#152);
#124=LINE('',#555,#153);
#125=LINE('',#558,#154);
#126=LINE('',#560,#155);
#127=LINE('',#561,#156);
#128=LINE('',#564,#157);
#129=LINE('',#566,#158);
#130=LINE('',#567,#159);
#131=LINE('',#569,#160);
#132=LINE('',#570,#161);
#133=LINE('',#578,#162);
#134=VECTOR('',#406,6.01706800000002);
#135=VECTOR('',#413,6.01706800000002);
#136=VECTOR('',#420,6.017068);
#137=VECTOR('',#427,6.01706800000002);
#138=VECTOR('',#432,10.);
#139=VECTOR('',#433,10.);
#140=VECTOR('',#434,10.);
#141=VECTOR('',#435,10.);
#142=VECTOR('',#438,10.);
#143=VECTOR('',#439,10.);
#144=VECTOR('',#440,10.);
#145=VECTOR('',#443,10.);
#146=VECTOR('',#444,10.);
#147=VECTOR('',#445,10.);
#148=VECTOR('',#448,10.);
#149=VECTOR('',#449,10.);
#150=VECTOR('',#452,10.);
#151=VECTOR('',#453,10.);
#152=VECTOR('',#454,10.);
#153=VECTOR('',#455,10.);
#154=VECTOR('',#458,10.);
#155=VECTOR('',#459,10.);
#156=VECTOR('',#460,10.);
#157=VECTOR('',#463,10.);
#158=VECTOR('',#464,10.);
#159=VECTOR('',#465,10.);
#160=VECTOR('',#468,10.);
#161=VECTOR('',#469,10.);
#162=VECTOR('',#480,6.017);
#163=CIRCLE('',#366,6.01706800000002);
#164=CIRCLE('',#367,6.01706800000002);
#165=CIRCLE('',#369,6.01706800000002);
#166=CIRCLE('',#370,6.01706800000002);
#167=CIRCLE('',#372,6.017068);
#168=CIRCLE('',#373,6.017068);
#169=CIRCLE('',#375,6.01706800000002);
#170=CIRCLE('',#376,6.01706800000002);
#171=CIRCLE('',#389,6.017);
#172=CIRCLE('',#390,6.017);
#173=VERTEX_POINT('',#500);
#174=VERTEX_POINT('',#502);
#175=VERTEX_POINT('',#506);
#176=VERTEX_POINT('',#508);
#177=VERTEX_POINT('',#512);
#178=VERTEX_POINT('',#514);
#179=VERTEX_POINT('',#518);
#180=VERTEX_POINT('',#520);
#181=VERTEX_POINT('',#524);
#182=VERTEX_POINT('',#525);
#183=VERTEX_POINT('',#527);
#184=VERTEX_POINT('',#529);
#185=VERTEX_POINT('',#533);
#186=VERTEX_POINT('',#535);
#187=VERTEX_POINT('',#539);
#188=VERTEX_POINT('',#541);
#189=VERTEX_POINT('',#548);
#190=VERTEX_POINT('',#549);
#191=VERTEX_POINT('',#551);
#192=VERTEX_POINT('',#553);
#193=VERTEX_POINT('',#557);
#194=VERTEX_POINT('',#559);
#195=VERTEX_POINT('',#563);
#196=VERTEX_POINT('',#565);
#197=VERTEX_POINT('',#575);
#198=VERTEX_POINT('',#577);
#199=EDGE_CURVE('',#173,#173,#163,.T.);
#200=EDGE_CURVE('',#173,#174,#105,.T.);
#201=EDGE_CURVE('',#174,#174,#164,.T.);
#202=EDGE_CURVE('',#175,#175,#165,.T.);
#203=EDGE_CURVE('',#175,#176,#106,.T.);
#204=EDGE_CURVE('',#176,#176,#166,.T.);
#205=EDGE_CURVE('',#177,#177,#167,.T.);
#206=EDGE_CURVE('',#177,#178,#107,.T.);
#207=EDGE_CURVE('',#178,#178,#168,.T.);
#208=EDGE_CURVE('',#179,#179,#169,.T.);
#209=EDGE_CURVE('',#179,#180,#108,.T.);
#210=EDGE_CURVE('',#180,#180,#170,.T.);
#211=EDGE_CURVE('',#181,#182,#109,.T.);
#212=EDGE_CURVE('',#181,#183,#110,.T.);
#213=EDGE_CURVE('',#184,#183,#111,.T.);
#214=EDGE_CURVE('',#182,#184,#112,.F.);
#215=EDGE_CURVE('',#182,#185,#113,.T.);
#216=EDGE_CURVE('',#186,#184,#114,.T.);
#217=EDGE_CURVE('',#185,#186,#115,.F.);
#218=EDGE_CURVE('',#185,#187,#116,.T.);
#219=EDGE_CURVE('',#188,#186,#117,.T.);
#220=EDGE_CURVE('',#187,#188,#118,.F.);
#221=EDGE_CURVE('',#187,#181,#119,.T.);
#222=EDGE_CURVE('',#183,#188,#120,.T.);
#223=EDGE_CURVE('',#189,#190,#121,.T.);
#224=EDGE_CURVE('',#190,#191,#122,.F.);
#225=EDGE_CURVE('',#191,#192,#123,.T.);
#226=EDGE_CURVE('',#189,#192,#124,.T.);
#227=EDGE_CURVE('',#190,#193,#125,.T.);
#228=EDGE_CURVE('',#193,#194,#126,.F.);
#229=EDGE_CURVE('',#194,#191,#127,.T.);
#230=EDGE_CURVE('',#193,#195,#128,.T.);
#231=EDGE_CURVE('',#195,#196,#129,.F.);
#232=EDGE_CURVE('',#196,#194,#130,.T.);
#233=EDGE_CURVE('',#195,#189,#131,.T.);
#234=EDGE_CURVE('',#192,#196,#132,.T.);
#235=EDGE_CURVE('',#197,#197,#171,.T.);
#236=EDGE_CURVE('',#197,#198,#133,.T.);
#237=EDGE_CURVE('',#198,#198,#172,.T.);
#238=ORIENTED_EDGE('',*,*,#199,.F.);
#239=ORIENTED_EDGE('',*,*,#200,.T.);
#240=ORIENTED_EDGE('',*,*,#201,.F.);
#241=ORIENTED_EDGE('',*,*,#200,.F.);
#242=ORIENTED_EDGE('',*,*,#202,.F.);
#243=ORIENTED_EDGE('',*,*,#203,.T.);
#244=ORIENTED_EDGE('',*,*,#204,.F.);
#245=ORIENTED_EDGE('',*,*,#203,.F.);
#246=ORIENTED_EDGE('',*,*,#205,.F.);
#247=ORIENTED_EDGE('',*,*,#206,.T.);
#248=ORIENTED_EDGE('',*,*,#207,.F.);
#249=ORIENTED_EDGE('',*,*,#206,.F.);
#250=ORIENTED_EDGE('',*,*,#208,.F.);
#251=ORIENTED_EDGE('',*,*,#209,.T.);
#252=ORIENTED_EDGE('',*,*,#210,.F.);
#253=ORIENTED_EDGE('',*,*,#209,.F.);
#254=ORIENTED_EDGE('',*,*,#211,.F.);
#255=ORIENTED_EDGE('',*,*,#212,.T.);
#256=ORIENTED_EDGE('',*,*,#213,.F.);
#257=ORIENTED_EDGE('',*,*,#214,.F.);
#258=ORIENTED_EDGE('',*,*,#215,.F.);
#259=ORIENTED_EDGE('',*,*,#214,.T.);
#260=ORIENTED_EDGE('',*,*,#216,.F.);
#261=ORIENTED_EDGE('',*,*,#217,.F.);
#262=ORIENTED_EDGE('',*,*,#218,.F.);
#263=ORIENTED_EDGE('',*,*,#217,.T.);
#264=ORIENTED_EDGE('',*,*,#219,.F.);
#265=ORIENTED_EDGE('',*,*,#220,.F.);
#266=ORIENTED_EDGE('',*,*,#221,.F.);
#267=ORIENTED_EDGE('',*,*,#220,.T.);
#268=ORIENTED_EDGE('',*,*,#222,.F.);
#269=ORIENTED_EDGE('',*,*,#212,.F.);
#270=ORIENTED_EDGE('',*,*,#223,.T.);
#271=ORIENTED_EDGE('',*,*,#224,.T.);
#272=ORIENTED_EDGE('',*,*,#225,.T.);
#273=ORIENTED_EDGE('',*,*,#226,.F.);
#274=ORIENTED_EDGE('',*,*,#227,.T.);
#275=ORIENTED_EDGE('',*,*,#228,.T.);
#276=ORIENTED_EDGE('',*,*,#229,.T.);
#277=ORIENTED_EDGE('',*,*,#224,.F.);
#278=ORIENTED_EDGE('',*,*,#230,.T.);
#279=ORIENTED_EDGE('',*,*,#231,.T.);
#280=ORIENTED_EDGE('',*,*,#232,.T.);
#281=ORIENTED_EDGE('',*,*,#228,.F.);
#282=ORIENTED_EDGE('',*,*,#233,.T.);
#283=ORIENTED_EDGE('',*,*,#226,.T.);
#284=ORIENTED_EDGE('',*,*,#234,.T.);
#285=ORIENTED_EDGE('',*,*,#231,.F.);
#286=ORIENTED_EDGE('',*,*,#221,.T.);
#287=ORIENTED_EDGE('',*,*,#211,.T.);
#288=ORIENTED_EDGE('',*,*,#215,.T.);
#289=ORIENTED_EDGE('',*,*,#218,.T.);
#290=ORIENTED_EDGE('',*,*,#230,.F.);
#291=ORIENTED_EDGE('',*,*,#227,.F.);
#292=ORIENTED_EDGE('',*,*,#223,.F.);
#293=ORIENTED_EDGE('',*,*,#233,.F.);
#294=ORIENTED_EDGE('',*,*,#210,.T.);
#295=ORIENTED_EDGE('',*,*,#207,.T.);
#296=ORIENTED_EDGE('',*,*,#204,.T.);
#297=ORIENTED_EDGE('',*,*,#201,.T.);
#298=ORIENTED_EDGE('',*,*,#219,.T.);
#299=ORIENTED_EDGE('',*,*,#216,.T.);
#300=ORIENTED_EDGE('',*,*,#213,.T.);
#301=ORIENTED_EDGE('',*,*,#222,.T.);
#302=ORIENTED_EDGE('',*,*,#234,.F.);
#303=ORIENTED_EDGE('',*,*,#225,.F.);
#304=ORIENTED_EDGE('',*,*,#229,.F.);
#305=ORIENTED_EDGE('',*,*,#232,.F.);
#306=ORIENTED_EDGE('',*,*,#208,.T.);
#307=ORIENTED_EDGE('',*,*,#205,.T.);
#308=ORIENTED_EDGE('',*,*,#202,.T.);
#309=ORIENTED_EDGE('',*,*,#199,.T.);
#310=ORIENTED_EDGE('',*,*,#235,.F.);
#311=ORIENTED_EDGE('',*,*,#236,.T.);
#312=ORIENTED_EDGE('',*,*,#237,.T.);
#313=ORIENTED_EDGE('',*,*,#236,.F.);
#314=ORIENTED_EDGE('',*,*,#235,.T.);
#315=ORIENTED_EDGE('',*,*,#237,.F.);
#316=CYLINDRICAL_SURFACE('',#365,6.01706800000002);
#317=CYLINDRICAL_SURFACE('',#368,6.01706800000002);
#318=CYLINDRICAL_SURFACE('',#371,6.017068);
#319=CYLINDRICAL_SURFACE('',#374,6.01706800000002);
#320=CYLINDRICAL_SURFACE('',#388,6.017);
#321=ADVANCED_FACE('',(#61),#316,.F.);
#322=ADVANCED_FACE('',(#62),#317,.F.);
#323=ADVANCED_FACE('',(#63),#318,.F.);
#324=ADVANCED_FACE('',(#64),#319,.F.);
#325=ADVANCED_FACE('',(#65),#49,.T.);
#326=ADVANCED_FACE('',(#66),#50,.T.);
#327=ADVANCED_FACE('',(#67),#51,.T.);
#328=ADVANCED_FACE('',(#68),#52,.T.);
#329=ADVANCED_FACE('',(#69),#53,.F.);
#330=ADVANCED_FACE('',(#70),#54,.F.);
#331=ADVANCED_FACE('',(#71),#55,.F.);
#332=ADVANCED_FACE('',(#72),#56,.F.);
#333=ADVANCED_FACE('',(#73,#39,#40,#41,#42,#43),#57,.F.);
#334=ADVANCED_FACE('',(#74,#44,#45,#46,#47,#48),#58,.F.);
#335=ADVANCED_FACE('',(#75),#320,.T.);
#336=ADVANCED_FACE('',(#76),#59,.T.);
#337=ADVANCED_FACE('',(#77),#60,.F.);
#338=CLOSED_SHELL('',(#321,#322,#323,#324,#325,#326,#327,#328,#329,#330,
#331,#332,#333,#334));
#339=CLOSED_SHELL('',(#335,#336,#337));
#340=DERIVED_UNIT_ELEMENT(#344,1.);
#341=DERIVED_UNIT_ELEMENT(#596,-3.);
#342=DERIVED_UNIT_ELEMENT(#344,1.);
#343=DERIVED_UNIT_ELEMENT(#596,-3.);
#344=(
MASS_UNIT()
NAMED_UNIT(*)
SI_UNIT(.KILO.,.GRAM.)
);
#345=DERIVED_UNIT((#340,#341));
#346=DERIVED_UNIT((#342,#343));
#347=MEASURE_REPRESENTATION_ITEM('density measure',
POSITIVE_RATIO_MEASURE(7850.),#345);
#348=MEASURE_REPRESENTATION_ITEM('density measure',
POSITIVE_RATIO_MEASURE(7850.),#346);
#349=PROPERTY_DEFINITION_REPRESENTATION(#359,#353);
#350=PROPERTY_DEFINITION_REPRESENTATION(#360,#354);
#351=PROPERTY_DEFINITION_REPRESENTATION(#361,#355);
#352=PROPERTY_DEFINITION_REPRESENTATION(#362,#356);
#353=REPRESENTATION('material name',(#357),#592);
#354=REPRESENTATION('density',(#347),#592);
#355=REPRESENTATION('material name',(#358),#593);
#356=REPRESENTATION('density',(#348),#593);
#357=DESCRIPTIVE_REPRESENTATION_ITEM('Steel ASTM A36','Steel ASTM A36');
#358=DESCRIPTIVE_REPRESENTATION_ITEM('Steel','Steel');
#359=PROPERTY_DEFINITION('material property','material name',#615);
#360=PROPERTY_DEFINITION('material property','density of part',#615);
#361=PROPERTY_DEFINITION('material property','material name',#616);
#362=PROPERTY_DEFINITION('material property','density of part',#616);
#363=AXIS2_PLACEMENT_3D('',#497,#398,#399);
#364=AXIS2_PLACEMENT_3D('',#498,#400,#401);
#365=AXIS2_PLACEMENT_3D('',#499,#402,#403);
#366=AXIS2_PLACEMENT_3D('',#501,#404,#405);
#367=AXIS2_PLACEMENT_3D('',#504,#407,#408);
#368=AXIS2_PLACEMENT_3D('',#505,#409,#410);
#369=AXIS2_PLACEMENT_3D('',#507,#411,#412);
#370=AXIS2_PLACEMENT_3D('',#510,#414,#415);
#371=AXIS2_PLACEMENT_3D('',#511,#416,#417);
#372=AXIS2_PLACEMENT_3D('',#513,#418,#419);
#373=AXIS2_PLACEMENT_3D('',#516,#421,#422);
#374=AXIS2_PLACEMENT_3D('',#517,#423,#424);
#375=AXIS2_PLACEMENT_3D('',#519,#425,#426);
#376=AXIS2_PLACEMENT_3D('',#522,#428,#429);
#377=AXIS2_PLACEMENT_3D('',#523,#430,#431);
#378=AXIS2_PLACEMENT_3D('',#532,#436,#437);
#379=AXIS2_PLACEMENT_3D('',#538,#441,#442);
#380=AXIS2_PLACEMENT_3D('',#544,#446,#447);
#381=AXIS2_PLACEMENT_3D('',#547,#450,#451);
#382=AXIS2_PLACEMENT_3D('',#556,#456,#457);
#383=AXIS2_PLACEMENT_3D('',#562,#461,#462);
#384=AXIS2_PLACEMENT_3D('',#568,#466,#467);
#385=AXIS2_PLACEMENT_3D('',#571,#470,#471);
#386=AXIS2_PLACEMENT_3D('',#572,#472,#473);
#387=AXIS2_PLACEMENT_3D('',#573,#474,#475);
#388=AXIS2_PLACEMENT_3D('',#574,#476,#477);
#389=AXIS2_PLACEMENT_3D('',#576,#478,#479);
#390=AXIS2_PLACEMENT_3D('',#579,#481,#482);
#391=AXIS2_PLACEMENT_3D('',#580,#483,#484);
#392=AXIS2_PLACEMENT_3D('',#581,#485,#486);
#393=AXIS2_PLACEMENT_3D('',#582,#487,#488);
#394=AXIS2_PLACEMENT_3D('',#583,#489,#490);
#395=AXIS2_PLACEMENT_3D('',#584,#491,#492);
#396=AXIS2_PLACEMENT_3D('',#585,#493,#494);
#397=AXIS2_PLACEMENT_3D('',#586,#495,#496);
#398=DIRECTION('axis',(0.,0.,1.));
#399=DIRECTION('refdir',(1.,0.,0.));
#400=DIRECTION('axis',(0.,0.,1.));
#401=DIRECTION('refdir',(1.,0.,0.));
#402=DIRECTION('center_axis',(0.,-1.,0.));
#403=DIRECTION('ref_axis',(-1.,0.,0.));
#404=DIRECTION('center_axis',(0.,-1.,0.));
#405=DIRECTION('ref_axis',(-1.,0.,0.));
#406=DIRECTION('',(0.,-1.,0.));
#407=DIRECTION('center_axis',(0.,1.,0.));
#408=DIRECTION('ref_axis',(-1.,0.,0.));
#409=DIRECTION('center_axis',(0.,-1.,0.));
#410=DIRECTION('ref_axis',(-1.,0.,0.));
#411=DIRECTION('center_axis',(0.,-1.,0.));
#412=DIRECTION('ref_axis',(-1.,0.,0.));
#413=DIRECTION('',(0.,-1.,0.));
#414=DIRECTION('center_axis',(0.,1.,0.));
#415=DIRECTION('ref_axis',(-1.,0.,0.));
#416=DIRECTION('center_axis',(0.,-1.,0.));
#417=DIRECTION('ref_axis',(-1.,0.,0.));
#418=DIRECTION('center_axis',(0.,-1.,0.));
#419=DIRECTION('ref_axis',(-1.,0.,0.));
#420=DIRECTION('',(0.,-1.,0.));
#421=DIRECTION('center_axis',(0.,1.,0.));
#422=DIRECTION('ref_axis',(-1.,0.,0.));
#423=DIRECTION('center_axis',(0.,-1.,0.));
#424=DIRECTION('ref_axis',(-1.,0.,0.));
#425=DIRECTION('center_axis',(0.,-1.,0.));
#426=DIRECTION('ref_axis',(-1.,0.,0.));
#427=DIRECTION('',(0.,-1.,0.));
#428=DIRECTION('center_axis',(0.,1.,0.));
#429=DIRECTION('ref_axis',(-1.,0.,0.));
#430=DIRECTION('center_axis',(-0.6,0.,-0.8));
#431=DIRECTION('ref_axis',(-0.8,0.,0.6));
#432=DIRECTION('',(0.8,0.,-0.6));
#433=DIRECTION('',(0.,1.,0.));
#434=DIRECTION('',(-0.8,0.,0.6));
#435=DIRECTION('',(0.,-1.,0.));
#436=DIRECTION('center_axis',(3.69778549322349E-33,0.,-1.));
#437=DIRECTION('ref_axis',(-1.,0.,-3.69778549322349E-33));
#438=DIRECTION('',(1.,0.,3.69778549322349E-33));
#439=DIRECTION('',(-1.,0.,-3.69778549322349E-33));
#440=DIRECTION('',(0.,-1.,0.));
#441=DIRECTION('center_axis',(0.6,0.,-0.8));
#442=DIRECTION('ref_axis',(-0.8,0.,-0.6));
#443=DIRECTION('',(0.8,0.,0.6));
#444=DIRECTION('',(-0.8,0.,-0.6));
#445=DIRECTION('',(0.,-1.,0.));
#446=DIRECTION('center_axis',(-2.96059473233375E-17,0.,1.));
#447=DIRECTION('ref_axis',(1.,0.,2.96059473233375E-17));
#448=DIRECTION('',(-1.,0.,-2.96059473233375E-17));
#449=DIRECTION('',(1.,0.,2.96059473233375E-17));
#450=DIRECTION('center_axis',(-0.6,0.,-0.8));
#451=DIRECTION('ref_axis',(-0.8,0.,0.6));
#452=DIRECTION('',(0.8,0.,-0.6));
#453=DIRECTION('',(0.,-1.,0.));
#454=DIRECTION('',(-0.8,0.,0.6));
#455=DIRECTION('',(0.,1.,0.));
#456=DIRECTION('center_axis',(3.69778549322349E-33,0.,-1.));
#457=DIRECTION('ref_axis',(-1.,0.,-3.69778549322349E-33));
#458=DIRECTION('',(1.,0.,3.69778549322349E-33));
#459=DIRECTION('',(0.,-1.,0.));
#460=DIRECTION('',(-1.,0.,-3.69778549322349E-33));
#461=DIRECTION('center_axis',(0.6,0.,-0.8));
#462=DIRECTION('ref_axis',(-0.8,0.,-0.6));
#463=DIRECTION('',(0.8,0.,0.6));
#464=DIRECTION('',(0.,-1.,0.));
#465=DIRECTION('',(-0.8,0.,-0.6));
#466=DIRECTION('center_axis',(-2.96059473233375E-17,0.,1.));
#467=DIRECTION('ref_axis',(1.,0.,2.96059473233375E-17));
#468=DIRECTION('',(-1.,0.,-2.96059473233375E-17));
#469=DIRECTION('',(1.,0.,2.96059473233375E-17));
#470=DIRECTION('center_axis',(0.,1.,0.));
#471=DIRECTION('ref_axis',(0.,0.,1.));
#472=DIRECTION('center_axis',(0.,-1.,0.));
#473=DIRECTION('ref_axis',(0.,0.,-1.));
#474=DIRECTION('axis',(0.,0.,1.));
#475=DIRECTION('refdir',(1.,0.,0.));
#476=DIRECTION('center_axis',(0.,1.,0.));
#477=DIRECTION('ref_axis',(1.,0.,0.));
#478=DIRECTION('center_axis',(0.,1.,0.));
#479=DIRECTION('ref_axis',(1.,0.,0.));
#480=DIRECTION('',(0.,-1.,0.));
#481=DIRECTION('center_axis',(0.,1.,0.));
#482=DIRECTION('ref_axis',(1.,0.,0.));
#483=DIRECTION('center_axis',(0.,1.,0.));
#484=DIRECTION('ref_axis',(1.,0.,0.));
#485=DIRECTION('center_axis',(0.,1.,0.));
#486=DIRECTION('ref_axis',(1.,0.,0.));
#487=DIRECTION('',(0.,0.,1.));
#488=DIRECTION('',(1.,0.,0.));
#489=DIRECTION('',(0.,0.,1.));
#490=DIRECTION('',(1.,0.,0.));
#491=DIRECTION('',(0.,0.,1.));
#492=DIRECTION('',(1.,0.,0.));
#493=DIRECTION('',(0.,0.,1.));
#494=DIRECTION('',(1.,0.,0.));
#495=DIRECTION('',(0.,0.,1.));
#496=DIRECTION('',(1.,0.,0.));
#497=CARTESIAN_POINT('',(0.,0.,0.));
#498=CARTESIAN_POINT('',(0.,0.,0.));
#499=CARTESIAN_POINT('Origin',(400.,21.60247,0.));
#500=CARTESIAN_POINT('',(406.017068,21.60247,-7.368783066452E-16));
#501=CARTESIAN_POINT('Origin',(400.,21.60247,0.));
#502=CARTESIAN_POINT('',(406.017068,0.,-7.368783066452E-16));
#503=CARTESIAN_POINT('',(406.017068,21.60247,7.368783066452E-16));
#504=CARTESIAN_POINT('Origin',(400.,0.,0.));
#505=CARTESIAN_POINT('Origin',(800.,21.60247,300.));
#506=CARTESIAN_POINT('',(806.017068,21.60247,300.));
#507=CARTESIAN_POINT('Origin',(800.,21.60247,300.));
#508=CARTESIAN_POINT('',(806.017068,0.,300.));
#509=CARTESIAN_POINT('',(806.017068,21.60247,300.));
#510=CARTESIAN_POINT('Origin',(800.,0.,300.));
#511=CARTESIAN_POINT('Origin',(0.,21.60247,0.));
#512=CARTESIAN_POINT('',(6.017068,21.60247,-7.36878306645197E-16));
#513=CARTESIAN_POINT('Origin',(0.,21.60247,0.));
#514=CARTESIAN_POINT('',(6.017068,0.,-7.36878306645197E-16));
#515=CARTESIAN_POINT('',(6.017068,21.60247,7.36878306645197E-16));
#516=CARTESIAN_POINT('Origin',(0.,0.,0.));
#517=CARTESIAN_POINT('Origin',(-400.,21.60247,300.));
#518=CARTESIAN_POINT('',(-393.982932,21.60247,300.));
#519=CARTESIAN_POINT('Origin',(-400.,21.60247,300.));
#520=CARTESIAN_POINT('',(-393.982932,0.,300.));
#521=CARTESIAN_POINT('',(-393.982932,21.60247,300.));
#522=CARTESIAN_POINT('Origin',(-400.,0.,300.));
#523=CARTESIAN_POINT('Origin',(-6.480741,0.,-8.640988));
#524=CARTESIAN_POINT('',(-432.403705,0.,310.801235));
#525=CARTESIAN_POINT('',(-3.60041166666667,0.,-10.801235));
#526=CARTESIAN_POINT('',(-406.480741,0.,291.359012));
#527=CARTESIAN_POINT('',(-432.403705,21.60247,310.801235));
#528=CARTESIAN_POINT('',(-432.403705,0.,310.801235));
#529=CARTESIAN_POINT('',(-3.60041166666667,21.60247,-10.801235));
#530=CARTESIAN_POINT('',(-406.480741,21.60247,291.359012));
#531=CARTESIAN_POINT('',(-3.60041166666669,0.,-10.801235));
#532=CARTESIAN_POINT('Origin',(400.,0.,-10.801235));
#533=CARTESIAN_POINT('',(403.600411666667,0.,-10.801235));
#534=CARTESIAN_POINT('',(3.99406500918979E-32,0.,-10.801235));
#535=CARTESIAN_POINT('',(403.600411666667,21.60247,-10.801235));
#536=CARTESIAN_POINT('',(3.99406500918979E-32,21.60247,-10.801235));
#537=CARTESIAN_POINT('',(403.600411666667,0.,-10.801235));
#538=CARTESIAN_POINT('Origin',(806.480741,0.,291.359012));
#539=CARTESIAN_POINT('',(832.403705,0.,310.801235));
#540=CARTESIAN_POINT('',(406.480741,0.,-8.640988));
#541=CARTESIAN_POINT('',(832.403705,21.60247,310.801235));
#542=CARTESIAN_POINT('',(406.480741,21.60247,-8.640988));
#543=CARTESIAN_POINT('',(832.403705,0.,310.801235));
#544=CARTESIAN_POINT('Origin',(-400.,0.,310.801235));
#545=CARTESIAN_POINT('',(800.,0.,310.801235));
#546=CARTESIAN_POINT('',(800.,21.60247,310.801235));
#547=CARTESIAN_POINT('Origin',(6.480741,0.,8.640988));
#548=CARTESIAN_POINT('',(-367.596295,0.,289.198765));
#549=CARTESIAN_POINT('',(3.60041166666667,0.,10.801235));
#550=CARTESIAN_POINT('',(-393.519259,0.,308.640988));
#551=CARTESIAN_POINT('',(3.60041166666667,21.60247,10.801235));
#552=CARTESIAN_POINT('',(3.60041166666671,0.,10.801235));
#553=CARTESIAN_POINT('',(-367.596295,21.60247,289.198765));
#554=CARTESIAN_POINT('',(-393.519259,21.60247,308.640988));
#555=CARTESIAN_POINT('',(-367.596295,0.,289.198765));
#556=CARTESIAN_POINT('Origin',(400.,0.,10.801235));
#557=CARTESIAN_POINT('',(396.399588333333,0.,10.801235));
#558=CARTESIAN_POINT('',(-3.99406500918979E-32,0.,10.801235));
#559=CARTESIAN_POINT('',(396.399588333333,21.60247,10.801235));
#560=CARTESIAN_POINT('',(396.399588333333,0.,10.801235));
#561=CARTESIAN_POINT('',(-3.99406500918979E-32,21.60247,10.801235));
#562=CARTESIAN_POINT('Origin',(793.519259,0.,308.640988));
#563=CARTESIAN_POINT('',(767.596295,0.,289.198765));
#564=CARTESIAN_POINT('',(393.519259,0.,8.640988));
#565=CARTESIAN_POINT('',(767.596295,21.60247,289.198765));
#566=CARTESIAN_POINT('',(767.596295,0.,289.198765));
#567=CARTESIAN_POINT('',(393.519259,21.60247,8.640988));
#568=CARTESIAN_POINT('Origin',(-400.,0.,289.198765));
#569=CARTESIAN_POINT('',(800.,0.,289.198765));
#570=CARTESIAN_POINT('',(800.,21.60247,289.198765));
#571=CARTESIAN_POINT('Origin',(-200.,0.,150.));
#572=CARTESIAN_POINT('Origin',(-200.,21.60247,150.));
#573=CARTESIAN_POINT('',(0.,0.,0.));
#574=CARTESIAN_POINT('Origin',(0.,0.,0.));
#575=CARTESIAN_POINT('',(-6.017,21.605,7.36869979046963E-16));
#576=CARTESIAN_POINT('Origin',(0.,21.605,0.));
#577=CARTESIAN_POINT('',(-6.017,0.,7.36869979046963E-16));
#578=CARTESIAN_POINT('',(-6.017,0.,7.36869979046963E-16));
#579=CARTESIAN_POINT('Origin',(0.,0.,0.));
#580=CARTESIAN_POINT('Origin',(0.,21.605,0.));
#581=CARTESIAN_POINT('Origin',(0.,0.,0.));
#582=CARTESIAN_POINT('',(0.,0.,0.));
#583=CARTESIAN_POINT('',(0.,0.,0.));
#584=CARTESIAN_POINT('',(-400.,0.,300.));
#585=CARTESIAN_POINT('',(400.,0.,0.));
#586=CARTESIAN_POINT('',(800.,0.,300.));
#587=UNCERTAINTY_MEASURE_WITH_UNIT(LENGTH_MEASURE(0.01),#595,
'DISTANCE_ACCURACY_VALUE',
'Maximum model space distance between geometric entities at asserted c
onnectivities');
#588=UNCERTAINTY_MEASURE_WITH_UNIT(LENGTH_MEASURE(0.01),#595,
'DISTANCE_ACCURACY_VALUE',
'Maximum model space distance between geometric entities at asserted c
onnectivities');
#589=UNCERTAINTY_MEASURE_WITH_UNIT(LENGTH_MEASURE(0.01),#595,
'DISTANCE_ACCURACY_VALUE',
'Maximum model space distance between geometric entities at asserted c
onnectivities');
#590=UNCERTAINTY_MEASURE_WITH_UNIT(LENGTH_MEASURE(0.01),#595,
'DISTANCE_ACCURACY_VALUE',
'Maximum model space distance between geometric entities at asserted c
onnectivities');
#591=(
GEOMETRIC_REPRESENTATION_CONTEXT(3)
GLOBAL_UNCERTAINTY_ASSIGNED_CONTEXT((#587))
GLOBAL_UNIT_ASSIGNED_CONTEXT((#595,#597,#598))
REPRESENTATION_CONTEXT('','3D')
);
#592=(
GEOMETRIC_REPRESENTATION_CONTEXT(3)
GLOBAL_UNCERTAINTY_ASSIGNED_CONTEXT((#588))
GLOBAL_UNIT_ASSIGNED_CONTEXT((#595,#597,#598))
REPRESENTATION_CONTEXT('','3D')
);
#593=(
GEOMETRIC_REPRESENTATION_CONTEXT(3)
GLOBAL_UNCERTAINTY_ASSIGNED_CONTEXT((#589))
GLOBAL_UNIT_ASSIGNED_CONTEXT((#595,#597,#598))
REPRESENTATION_CONTEXT('','3D')
);
#594=(
GEOMETRIC_REPRESENTATION_CONTEXT(3)
GLOBAL_UNCERTAINTY_ASSIGNED_CONTEXT((#590))
GLOBAL_UNIT_ASSIGNED_CONTEXT((#595,#597,#598))
REPRESENTATION_CONTEXT('','3D')
);
#595=(
LENGTH_UNIT()
NAMED_UNIT(*)
SI_UNIT(.MILLI.,.METRE.)
);
#596=(
LENGTH_UNIT()
NAMED_UNIT(*)
SI_UNIT($,.METRE.)
);
#597=(
NAMED_UNIT(*)
PLANE_ANGLE_UNIT()
SI_UNIT($,.RADIAN.)
);
#598=(
NAMED_UNIT(*)
SI_UNIT($,.STERADIAN.)
SOLID_ANGLE_UNIT()
);
#599=SHAPE_DEFINITION_REPRESENTATION(#602,#610);
#600=SHAPE_DEFINITION_REPRESENTATION(#603,#611);
#601=SHAPE_DEFINITION_REPRESENTATION(#604,#612);
#602=PRODUCT_DEFINITION_SHAPE('',$,#614);
#603=PRODUCT_DEFINITION_SHAPE('',$,#615);
#604=PRODUCT_DEFINITION_SHAPE('',$,#616);
#605=PRODUCT_DEFINITION_SHAPE($,$,#26);
#606=PRODUCT_DEFINITION_SHAPE($,$,#27);
#607=PRODUCT_DEFINITION_SHAPE($,$,#28);
#608=PRODUCT_DEFINITION_SHAPE($,$,#29);
#609=PRODUCT_DEFINITION_SHAPE($,$,#30);
#610=SHAPE_REPRESENTATION('',(#363,#393,#394,#395,#396,#397),#591);
#611=SHAPE_REPRESENTATION('',(#364),#592);
#612=SHAPE_REPRESENTATION('',(#387),#593);
#613=PRODUCT_DEFINITION_CONTEXT('part definition',#624,'design');
#614=PRODUCT_DEFINITION('HW_2 Assembly','HW_2 Assembly v3',#617,#613);
#615=PRODUCT_DEFINITION('HW2','HW2 v8',#618,#613);
#616=PRODUCT_DEFINITION('pi','pi v1',#619,#613);
#617=PRODUCT_DEFINITION_FORMATION('',$,#626);
#618=PRODUCT_DEFINITION_FORMATION('',$,#627);
#619=PRODUCT_DEFINITION_FORMATION('',$,#628);
#620=PRODUCT_RELATED_PRODUCT_CATEGORY('HW_2 Assembly v3',
'HW_2 Assembly v3',(#626));
#621=PRODUCT_RELATED_PRODUCT_CATEGORY('HW2 v8','HW2 v8',(#627));
#622=PRODUCT_RELATED_PRODUCT_CATEGORY('pi v1','pi v1',(#628));
#623=APPLICATION_PROTOCOL_DEFINITION('international standard',
'automotive_design',2009,#624);
#624=APPLICATION_CONTEXT(
'Core Data for Automotive Mechanical Design Process');
#625=PRODUCT_CONTEXT('part definition',#624,'mechanical');
#626=PRODUCT('HW_2 Assembly','HW_2 Assembly v3',$,(#625));
#627=PRODUCT('HW2','HW2 v8',$,(#625));
#628=PRODUCT('pi','pi v1',$,(#625));
#629=PRESENTATION_STYLE_ASSIGNMENT((#632));
#630=PRESENTATION_STYLE_ASSIGNMENT((#633));
#631=PRESENTATION_STYLE_ASSIGNMENT((#634));
#632=SURFACE_STYLE_USAGE(.BOTH.,#635);
#633=SURFACE_STYLE_USAGE(.BOTH.,#636);
#634=SURFACE_STYLE_USAGE(.BOTH.,#637);
#635=SURFACE_SIDE_STYLE('',(#638));
#636=SURFACE_SIDE_STYLE('',(#639));
#637=SURFACE_SIDE_STYLE('',(#640));
#638=SURFACE_STYLE_FILL_AREA(#641);
#639=SURFACE_STYLE_FILL_AREA(#642);
#640=SURFACE_STYLE_FILL_AREA(#643);
#641=FILL_AREA_STYLE('Steel - Satin',(#644));
#642=FILL_AREA_STYLE('Steel - Rough',(#645));
#643=FILL_AREA_STYLE('Stainless Steel - Satin',(#646));
#644=FILL_AREA_STYLE_COLOUR('Steel - Satin',#647);
#645=FILL_AREA_STYLE_COLOUR('Steel - Rough',#648);
#646=FILL_AREA_STYLE_COLOUR('Stainless Steel - Satin',#649);
#647=COLOUR_RGB('Steel - Satin',0.627450980392157,0.627450980392157,0.627450980392157);
#648=COLOUR_RGB('Steel - Rough',0.627450980392157,0.627450980392157,0.627450980392157);
#649=COLOUR_RGB('Stainless Steel - Satin',0.796078431372549,0.796078431372549,
0.796078431372549);
ENDSEC;
END-ISO-10303-21;
